<svg width="736" height="96" viewBox="0 0 736 96" fill="none" xmlns="http://www.w3.org/2000/svg">
<path d="M62 48C61.9993 48.3439 61.9104 48.6819 61.7419 48.9817C61.5734 49.2815 61.3309 49.5331 61.0375 49.7125L43.0375 60.7C42.7377 60.89 42.3914 60.994 42.0365 61.0006C41.6816 61.0072 41.3317 60.9162 41.025 60.7375C40.7138 60.5668 40.4543 60.3153 40.2739 60.0095C40.0936 59.7038 39.9989 59.355 40 59V37C39.9989 36.645 40.0936 36.2963 40.2739 35.9905C40.4543 35.6848 40.7138 35.4333 41.025 35.2625C41.3317 35.0838 41.6816 34.9928 42.0365 34.9994C42.3914 35.006 42.7377 35.11 43.0375 35.3L61.0375 46.2875C61.3309 46.4669 61.5734 46.7186 61.7419 47.0184C61.9104 47.3182 61.9993 47.6561 62 48Z" fill="#471515"/>
<path d="M127.65 48C127.652 48.3352 127.569 48.6654 127.409 48.9603C127.25 49.2552 127.019 49.5052 126.738 49.6875L115.588 56.85C115.285 57.0461 114.935 57.1567 114.575 57.1701C114.214 57.1836 113.857 57.0994 113.541 56.9265C113.224 56.7536 112.961 56.4984 112.777 56.1878C112.594 55.8773 112.498 55.523 112.5 55.1625V49.8375L101.588 56.85C101.285 57.0461 100.935 57.1567 100.575 57.1701C100.214 57.1836 99.8572 57.0994 99.5408 56.9265C99.2244 56.7536 98.9607 56.4984 98.7775 56.1878C98.5943 55.8773 98.4984 55.523 98.5 55.1625V40.8375C98.4984 40.477 98.5943 40.1227 98.7775 39.8122C98.9607 39.5017 99.2244 39.2464 99.5408 39.0735C99.8572 38.9006 100.214 38.8164 100.575 38.8299C100.935 38.8434 101.285 38.954 101.588 39.15L112.5 46.1625V40.8375C112.498 40.477 112.594 40.1227 112.777 39.8122C112.961 39.5017 113.224 39.2464 113.541 39.0735C113.857 38.9006 114.214 38.8164 114.575 38.8299C114.935 38.8434 115.285 38.954 115.588 39.15L126.738 46.3125C127.019 46.4948 127.25 46.7448 127.409 47.0397C127.569 47.3346 127.652 47.6648 127.65 48Z" fill="#471515"/>
<path d="M179.5 48C179.5 48.6922 179.295 49.3689 178.91 49.9445C178.526 50.5201 177.979 50.9687 177.339 51.2336C176.7 51.4985 175.996 51.5678 175.317 51.4327C174.638 51.2977 174.015 50.9644 173.525 50.4749C173.036 49.9854 172.702 49.3617 172.567 48.6828C172.432 48.0039 172.502 47.3001 172.766 46.6606C173.031 46.0211 173.48 45.4744 174.056 45.0899C174.631 44.7053 175.308 44.5 176 44.5C176.927 44.5033 177.816 44.8731 178.471 45.5288C179.127 46.1844 179.497 47.0728 179.5 48ZM166 44.5C165.308 44.5 164.631 44.7053 164.056 45.0899C163.48 45.4744 163.031 46.0211 162.766 46.6606C162.502 47.3001 162.432 48.0039 162.567 48.6828C162.702 49.3617 163.036 49.9854 163.525 50.4749C164.015 50.9644 164.638 51.2977 165.317 51.4327C165.996 51.5678 166.7 51.4985 167.339 51.2336C167.979 50.9687 168.526 50.5201 168.91 49.9445C169.295 49.3689 169.5 48.6922 169.5 48C169.497 47.0728 169.127 46.1844 168.471 45.5288C167.816 44.8731 166.927 44.5033 166 44.5ZM186 44.5C185.308 44.5 184.631 44.7053 184.056 45.0899C183.48 45.4744 183.031 46.0211 182.766 46.6606C182.502 47.3001 182.432 48.0039 182.567 48.6828C182.702 49.3617 183.036 49.9854 183.525 50.4749C184.015 50.9644 184.638 51.2977 185.317 51.4327C185.996 51.5678 186.7 51.4985 187.339 51.2336C187.979 50.9687 188.526 50.5201 188.91 49.9445C189.295 49.3689 189.5 48.6922 189.5 48C189.497 47.0728 189.127 46.1844 188.471 45.5288C187.816 44.8731 186.927 44.5033 186 44.5Z" fill="#471515"/>
<path d="M251 38V58C251 58.5304 250.789 59.0391 250.414 59.4142C250.039 59.7893 249.53 60 249 60H244.5C243.97 60 243.461 59.7893 243.086 59.4142C242.711 59.0391 242.5 58.5304 242.5 58V38C242.5 37.4696 242.711 36.9609 243.086 36.5858C243.461 36.2107 243.97 36 244.5 36H249C249.53 36 250.039 36.2107 250.414 36.5858C250.789 36.9609 251 37.4696 251 38ZM235.5 36H231C230.47 36 229.961 36.2107 229.586 36.5858C229.211 36.9609 229 37.4696 229 38V58C229 58.5304 229.211 59.0391 229.586 59.4142C229.961 59.7893 230.47 60 231 60H235.5C236.03 60 236.539 59.7893 236.914 59.4142C237.289 59.0391 237.5 58.5304 237.5 58V38C237.5 37.4696 237.289 36.9609 236.914 36.5858C236.539 36.2107 236.03 36 235.5 36Z" fill="#471515"/>
<path d="M317.688 45.0375C317.657 44.8977 317.596 44.7662 317.51 44.6519C317.423 44.5376 317.313 44.4432 317.188 44.375L314.213 42.725C314.053 42.4016 313.874 42.0885 313.675 41.7875L313.738 38.3875C313.739 38.2449 313.71 38.1036 313.655 37.9724C313.599 37.8412 313.516 37.7229 313.413 37.625C311.931 36.2819 310.179 35.2718 308.275 34.6625C308.138 34.6198 307.994 34.6067 307.852 34.6239C307.71 34.6412 307.573 34.6884 307.45 34.7625L304.538 36.5125C304.175 36.5 303.825 36.5 303.463 36.5125L300.55 34.7625C300.427 34.6884 300.291 34.6412 300.148 34.6239C300.006 34.6067 299.862 34.6198 299.725 34.6625C297.818 35.2722 296.066 36.2871 294.588 37.6375C294.483 37.732 294.4 37.8479 294.344 37.9773C294.288 38.1066 294.26 38.2465 294.263 38.3875L294.325 41.7875C294.125 42.0875 293.95 42.4 293.775 42.725L290.8 44.375C290.676 44.4439 290.568 44.5387 290.484 44.6531C290.4 44.7674 290.341 44.8985 290.313 45.0375C289.888 46.9896 289.888 49.0103 290.313 50.9625C290.344 51.1023 290.404 51.2338 290.491 51.3481C290.577 51.4623 290.687 51.5568 290.813 51.625L293.788 53.275C293.947 53.5984 294.127 53.9115 294.325 54.2125L294.263 57.6125C294.261 57.7551 294.29 57.8964 294.346 58.0276C294.402 58.1588 294.484 58.277 294.588 58.375C296.069 59.718 297.821 60.7282 299.725 61.3375C299.862 61.3801 300.006 61.3933 300.148 61.376C300.291 61.3588 300.427 61.3116 300.55 61.2375L303.463 59.4875H304.538L307.463 61.2375C307.615 61.3375 307.793 61.3897 307.975 61.3875C308.077 61.3831 308.177 61.3663 308.275 61.3375C310.182 60.7277 311.935 59.7129 313.413 58.3625C313.517 58.2679 313.6 58.1521 313.656 58.0227C313.712 57.8933 313.74 57.7534 313.738 57.6125L313.675 54.2125C313.875 53.9125 314.05 53.6 314.225 53.275L317.2 51.625C317.324 51.5561 317.432 51.4612 317.516 51.3469C317.6 51.2326 317.659 51.1015 317.688 50.9625C318.113 49.0103 318.113 46.9896 317.688 45.0375ZM304 53.5C302.912 53.5 301.849 53.1774 300.944 52.5731C300.04 51.9687 299.335 51.1097 298.919 50.1047C298.502 49.0997 298.394 47.9939 298.606 46.927C298.818 45.8601 299.342 44.8801 300.111 44.1109C300.88 43.3417 301.86 42.8179 302.927 42.6057C303.994 42.3934 305.1 42.5024 306.105 42.9186C307.11 43.3349 307.969 44.0399 308.573 44.9443C309.177 45.8488 309.5 46.9122 309.5 48C309.5 49.4587 308.921 50.8576 307.889 51.8891C306.858 52.9205 305.459 53.5 304 53.5Z" fill="#471515"/>
<path d="M379 37H357C356.47 37 355.961 37.2107 355.586 37.5858C355.211 37.9609 355 38.4696 355 39V57C355 57.5304 355.211 58.0391 355.586 58.4142C355.961 58.7893 356.47 59 357 59H379C379.53 59 380.039 58.7893 380.414 58.4142C380.789 58.0391 381 57.5304 381 57V39C381 38.4696 380.789 37.9609 380.414 37.5858C380.039 37.2107 379.53 37 379 37ZM375 49C375 49.2652 374.895 49.5196 374.707 49.7071C374.52 49.8946 374.265 50 374 50H364.413L365.712 51.2875C365.9 51.4771 366.006 51.7332 366.006 52C366.006 52.2668 365.9 52.5229 365.712 52.7125C365.521 52.8973 365.266 53.0006 365 53.0006C364.734 53.0006 364.479 52.8973 364.288 52.7125L361.288 49.7125C361.1 49.5229 360.994 49.2668 360.994 49C360.994 48.7332 361.1 48.4771 361.288 48.2875L364.288 45.2875C364.482 45.128 364.728 45.0465 364.98 45.0589C365.231 45.0712 365.468 45.1765 365.646 45.3542C365.824 45.5319 365.929 45.7694 365.941 46.0205C365.953 46.2715 365.872 46.5182 365.712 46.7125L364.413 48H373V45C373 44.7348 373.105 44.4804 373.293 44.2929C373.48 44.1054 373.735 44 374 44C374.265 44 374.52 44.1054 374.707 44.2929C374.895 44.4804 375 44.7348 375 45V49Z" fill="#471515"/>
<path d="M444.5 57H443.5V37C443.5 36.7348 443.395 36.4804 443.207 36.2929C443.02 36.1054 442.765 36 442.5 36H435.5C435.235 36 434.98 36.1054 434.793 36.2929C434.605 36.4804 434.5 36.7348 434.5 37V42H428.5C428.235 42 427.98 42.1054 427.793 42.2929C427.605 42.4804 427.5 42.7348 427.5 43V48H421.5C421.235 48 420.98 48.1054 420.793 48.2929C420.605 48.4804 420.5 48.7348 420.5 49V57H419.5C419.235 57 418.98 57.1054 418.793 57.2929C418.605 57.4804 418.5 57.7348 418.5 58C418.5 58.2652 418.605 58.5196 418.793 58.7071C418.98 58.8946 419.235 59 419.5 59H444.5C444.765 59 445.02 58.8946 445.207 58.7071C445.395 58.5196 445.5 58.2652 445.5 58C445.5 57.7348 445.395 57.4804 445.207 57.2929C445.02 57.1054 444.765 57 444.5 57ZM429.5 44H434.5V57H429.5V44ZM422.5 50H427.5V57H422.5V50Z" fill="#471515"/>
<path d="M511 48.5C511 47.1753 510.624 45.8777 509.916 44.7581C509.208 43.6385 508.197 42.7428 507 42.175V41C506.999 39.7114 506.583 38.4574 505.814 37.4234C505.045 36.3895 503.964 35.6306 502.73 35.259C501.496 34.8874 500.175 34.923 498.963 35.3604C497.751 35.7977 496.712 36.6137 496 37.6875C495.288 36.6137 494.249 35.7977 493.037 35.3604C491.824 34.923 490.504 34.8874 489.27 35.259C488.036 35.6306 486.955 36.3895 486.186 37.4234C485.417 38.4574 485.001 39.7114 485 41V42.175C483.803 42.7426 482.791 43.6383 482.083 44.7579C481.375 45.8776 480.999 47.1752 480.999 48.5C480.999 49.8249 481.375 51.1225 482.083 52.2421C482.791 53.3618 483.803 54.2574 485 54.825V55C485.001 56.2886 485.417 57.5427 486.186 58.5766C486.955 59.6106 488.036 60.3695 489.27 60.7411C490.504 61.1126 491.824 61.0771 493.037 60.6397C494.249 60.2023 495.288 59.3864 496 58.3125C496.712 59.3864 497.751 60.2023 498.963 60.6397C500.175 61.0771 501.496 61.1126 502.73 60.7411C503.964 60.3695 505.045 59.6106 505.814 58.5766C506.583 57.5427 506.999 56.2886 507 55V54.825C508.196 54.2561 509.206 53.3601 509.914 52.2407C510.622 51.1214 510.999 49.8244 511 48.5ZM491 59C490.013 58.9995 489.061 58.6341 488.327 57.9741C487.594 57.3142 487.13 56.4063 487.025 55.425C487.347 55.4758 487.673 55.5009 488 55.5H489C489.265 55.5 489.52 55.3947 489.707 55.2071C489.895 55.0196 490 54.7652 490 54.5C490 54.2348 489.895 53.9805 489.707 53.7929C489.52 53.6054 489.265 53.5 489 53.5H488C486.822 53.498 485.682 53.0799 484.782 52.3195C483.882 51.559 483.279 50.5051 483.08 49.3436C482.881 48.1822 483.099 46.9878 483.695 45.9713C484.291 44.9547 485.227 44.1813 486.337 43.7875C486.532 43.7159 486.699 43.5865 486.818 43.4166C486.936 43.2467 487 43.0446 487 42.8375V41C487 39.9392 487.421 38.9217 488.172 38.1716C488.922 37.4215 489.939 37 491 37C492.061 37 493.078 37.4215 493.828 38.1716C494.579 38.9217 495 39.9392 495 41V50.5375C493.905 49.5439 492.478 48.9955 491 49C490.735 49 490.48 49.1054 490.293 49.2929C490.105 49.4805 490 49.7348 490 50C490 50.2652 490.105 50.5196 490.293 50.7071C490.48 50.8947 490.735 51 491 51C492.061 51 493.078 51.4215 493.828 52.1716C494.579 52.9217 495 53.9392 495 55C495 56.0609 494.579 57.0783 493.828 57.8285C493.078 58.5786 492.061 59 491 59ZM504 53.5H503C502.735 53.5 502.48 53.6054 502.293 53.7929C502.105 53.9805 502 54.2348 502 54.5C502 54.7652 502.105 55.0196 502.293 55.2071C502.48 55.3947 502.735 55.5 503 55.5H504C504.326 55.5009 504.652 55.4758 504.975 55.425C504.893 56.1938 504.59 56.9222 504.102 57.5222C503.615 58.1223 502.964 58.5682 502.228 58.806C501.493 59.0439 500.704 59.0634 499.957 58.8624C499.211 58.6613 498.539 58.2482 498.022 57.6731C497.505 57.098 497.166 56.3855 497.046 55.6217C496.926 54.858 497.03 54.0759 497.345 53.3699C497.66 52.6639 498.173 52.0643 498.822 51.6438C499.47 51.2232 500.227 50.9996 501 51C501.265 51 501.52 50.8947 501.707 50.7071C501.895 50.5196 502 50.2652 502 50C502 49.7348 501.895 49.4805 501.707 49.2929C501.52 49.1054 501.265 49 501 49C499.522 48.9955 498.095 49.5439 497 50.5375V41C497 39.9392 497.421 38.9217 498.172 38.1716C498.922 37.4215 499.939 37 501 37C502.061 37 503.078 37.4215 503.828 38.1716C504.579 38.9217 505 39.9392 505 41V42.8375C505 43.0446 505.064 43.2467 505.182 43.4166C505.3 43.5865 505.468 43.7159 505.662 43.7875C506.773 44.1813 507.709 44.9547 508.305 45.9713C508.901 46.9878 509.119 48.1822 508.92 49.3436C508.721 50.5051 508.118 51.559 507.218 52.3195C506.318 53.0799 505.178 53.498 504 53.5ZM487.5 48C487.235 48 486.98 47.8947 486.793 47.7071C486.605 47.5196 486.5 47.2652 486.5 47C486.5 46.7348 486.605 46.4805 486.793 46.2929C486.98 46.1054 487.235 46 487.5 46C488.162 45.9967 488.796 45.7323 489.264 45.2642C489.732 44.796 489.997 44.1621 490 43.5V42.5C490 42.2348 490.105 41.9805 490.293 41.7929C490.48 41.6054 490.735 41.5 491 41.5C491.265 41.5 491.52 41.6054 491.707 41.7929C491.895 41.9805 492 42.2348 492 42.5V43.5C492 44.6935 491.526 45.8381 490.682 46.682C489.838 47.5259 488.693 48 487.5 48ZM505.5 47C505.5 47.2652 505.395 47.5196 505.207 47.7071C505.02 47.8947 504.765 48 504.5 48C503.306 48 502.162 47.5259 501.318 46.682C500.474 45.8381 500 44.6935 500 43.5V42.5C500 42.2348 500.105 41.9805 500.293 41.7929C500.48 41.6054 500.735 41.5 501 41.5C501.265 41.5 501.52 41.6054 501.707 41.7929C501.895 41.9805 502 42.2348 502 42.5V43.5C502.003 44.1621 502.268 44.796 502.736 45.2642C503.204 45.7323 503.838 45.9967 504.5 46C504.765 46 505.02 46.1054 505.207 46.2929C505.395 46.4805 505.5 46.7348 505.5 47Z" fill="#471515"/>
<path d="M554 39V35C554 34.7348 554.105 34.4804 554.293 34.2929C554.48 34.1054 554.735 34 555 34C555.265 34 555.52 34.1054 555.707 34.2929C555.895 34.4804 556 34.7348 556 35V39C556 39.2652 555.895 39.5196 555.707 39.7071C555.52 39.8946 555.265 40 555 40C554.735 40 554.48 39.8946 554.293 39.7071C554.105 39.5196 554 39.2652 554 39ZM559 40C559.265 40 559.52 39.8946 559.707 39.7071C559.895 39.5196 560 39.2652 560 39V35C560 34.7348 559.895 34.4804 559.707 34.2929C559.52 34.1054 559.265 34 559 34C558.735 34 558.48 34.1054 558.293 34.2929C558.105 34.4804 558 34.7348 558 35V39C558 39.2652 558.105 39.5196 558.293 39.7071C558.48 39.8946 558.735 40 559 40ZM563 40C563.265 40 563.52 39.8946 563.707 39.7071C563.895 39.5196 564 39.2652 564 39V35C564 34.7348 563.895 34.4804 563.707 34.2929C563.52 34.1054 563.265 34 563 34C562.735 34 562.48 34.1054 562.293 34.2929C562.105 34.4804 562 34.7348 562 35V39C562 39.2652 562.105 39.5196 562.293 39.7071C562.48 39.8946 562.735 40 563 40ZM575 47V48C574.999 49.2715 574.514 50.495 573.643 51.4215C572.773 52.3481 571.582 52.908 570.312 52.9875C569.624 54.9139 568.463 56.6372 566.938 58H570C570.265 58 570.52 58.1054 570.707 58.2929C570.895 58.4804 571 58.7348 571 59C571 59.2652 570.895 59.5196 570.707 59.7071C570.52 59.8946 570.265 60 570 60H548C547.735 60 547.48 59.8946 547.293 59.7071C547.105 59.5196 547 59.2652 547 59C547 58.7348 547.105 58.4804 547.293 58.2929C547.48 58.1054 547.735 58 548 58H551.062C549.788 56.8718 548.767 55.4865 548.067 53.9352C547.367 52.384 547.003 50.702 547 49V43C547 42.7348 547.105 42.4804 547.293 42.2929C547.48 42.1054 547.735 42 548 42H570C571.326 42 572.598 42.5268 573.536 43.4645C574.473 44.4021 575 45.6739 575 47ZM569 44H549V49C549.004 50.8772 549.534 52.7157 550.531 54.3066C551.528 55.8975 552.95 57.1771 554.637 58H563.362C564.623 57.384 565.74 56.5107 566.642 55.4364C567.544 54.362 568.211 53.1105 568.6 51.7625C568.614 51.7397 568.622 51.7141 568.625 51.6875C568.876 50.8139 569.003 49.909 569 49V44ZM573 47C572.999 46.3802 572.807 45.7758 572.449 45.27C572.09 44.7641 571.584 44.3816 571 44.175V49C571.001 49.628 570.951 50.2551 570.85 50.875C571.47 50.6917 572.015 50.3127 572.403 49.7946C572.79 49.2765 573 48.647 573 48V47Z" fill="#471515"/>
<path d="M635.712 48.7125L626.712 57.7125C626.521 57.8973 626.266 58.0007 626 58.0007C625.734 58.0007 625.479 57.8973 625.288 57.7125C625.1 57.5229 624.994 57.2669 624.994 57C624.994 56.7332 625.1 56.4771 625.288 56.2875L632.587 49H613C612.735 49 612.48 48.8947 612.293 48.7071C612.105 48.5196 612 48.2652 612 48C612 47.7348 612.105 47.4805 612.293 47.2929C612.48 47.1054 612.735 47 613 47H632.587L625.288 39.7125C625.128 39.5182 625.047 39.2716 625.059 39.0205C625.071 38.7695 625.176 38.532 625.354 38.3542C625.532 38.1765 625.769 38.0712 626.02 38.0589C626.272 38.0466 626.518 38.1281 626.712 38.2875L635.712 47.2875C635.9 47.4771 636.006 47.7332 636.006 48C636.006 48.2669 635.9 48.5229 635.712 48.7125Z" fill="#471515"/>
<path d="M697.713 56.2875C697.9 56.4771 698.006 56.7332 698.006 57C698.006 57.2669 697.9 57.5229 697.713 57.7125C697.521 57.8973 697.266 58.0007 697 58.0007C696.734 58.0007 696.479 57.8973 696.288 57.7125L688 49.4125L679.713 57.7125C679.521 57.8973 679.266 58.0007 679 58.0007C678.734 58.0007 678.479 57.8973 678.288 57.7125C678.1 57.5229 677.994 57.2669 677.994 57C677.994 56.7332 678.1 56.4771 678.288 56.2875L686.588 48L678.288 39.7125C678.128 39.5182 678.047 39.2716 678.059 39.0205C678.071 38.7695 678.176 38.532 678.354 38.3542C678.532 38.1765 678.769 38.0712 679.02 38.0589C679.272 38.0466 679.518 38.1281 679.713 38.2875L688 46.5875L696.288 38.2875C696.482 38.1281 696.728 38.0466 696.98 38.0589C697.231 38.0712 697.468 38.1765 697.646 38.3542C697.824 38.532 697.929 38.7695 697.941 39.0205C697.953 39.2716 697.872 39.5182 697.713 39.7125L689.413 48L697.713 56.2875Z" fill="#471515"/>
</svg>
