<svg width="32" height="32" viewBox="0 0 32 32" fill="none" xmlns="http://www.w3.org/2000/svg">
<path d="M0 12.8C0 8.31958 0 6.07937 0.871948 4.36808C1.63893 2.86278 2.86278 1.63893 4.36808 0.871948C6.07937 0 8.31958 0 12.8 0H19.2C23.6804 0 25.9206 0 27.6319 0.871948C29.1372 1.63893 30.3611 2.86278 31.1281 4.36808C32 6.07937 32 8.31958 32 12.8V19.2C32 23.6804 32 25.9206 31.1281 27.6319C30.3611 29.1372 29.1372 30.3611 27.6319 31.1281C25.9206 32 23.6804 32 19.2 32H12.8C8.31958 32 6.07937 32 4.36808 31.1281C2.86278 30.3611 1.63893 29.1372 0.871948 27.6319C0 25.9206 0 23.6804 0 19.2V12.8Z" fill="#471515"/>
<rect x="1" y="5" width="30" height="26" rx="7" fill="#FFD9D9"/>
<path d="M16 10.5V18.5L23 25.5" stroke="#471515" stroke-width="4" stroke-linecap="round" stroke-linejoin="round"/>
<rect x="1" y="5" width="30" height="26" rx="7" stroke="#471515" stroke-width="2"/>
<path d="M4.36808 31.1281L5.27606 29.346L4.36808 31.1281ZM0.871948 27.6319L-0.910065 28.5399L0.871948 27.6319ZM31.1281 27.6319L29.346 26.7239L31.1281 27.6319ZM27.6319 31.1281L26.7239 29.346L27.6319 31.1281ZM31.1281 4.36808L29.346 5.27606L31.1281 4.36808ZM4.36808 0.871948L3.46009 -0.910065L4.36808 0.871948ZM0.871948 4.36808L-0.910065 3.46009L0.871948 4.36808ZM12.8 2H19.2V-2H12.8V2ZM30 12.8V19.2H34V12.8H30ZM19.2 30H12.8V34H19.2V30ZM2 19.2V12.8H-2V19.2H2ZM12.8 30C10.5268 30 8.94216 29.9984 7.70848 29.8976C6.49814 29.7988 5.80277 29.6144 5.27606 29.346L3.46009 32.9101C4.64468 33.5136 5.92505 33.7653 7.38275 33.8844C8.8171 34.0016 10.5928 34 12.8 34V30ZM-2 19.2C-2 21.4072 -2.00156 23.1829 -1.88436 24.6172C-1.76527 26.0749 -1.51364 27.3553 -0.910065 28.5399L2.65396 26.7239C2.38559 26.1972 2.20124 25.5019 2.10235 24.2915C2.00156 23.0578 2 21.4732 2 19.2H-2ZM5.27606 29.346C4.14708 28.7708 3.2292 27.8529 2.65396 26.7239L-0.910065 28.5399C0.0486684 30.4215 1.57847 31.9513 3.46009 32.9101L5.27606 29.346ZM30 19.2C30 21.4732 29.9984 23.0578 29.8976 24.2915C29.7988 25.5019 29.6144 26.1972 29.346 26.7239L32.9101 28.5399C33.5136 27.3553 33.7653 26.0749 33.8844 24.6172C34.0016 23.1829 34 21.4072 34 19.2H30ZM19.2 34C21.4072 34 23.1829 34.0016 24.6172 33.8844C26.0749 33.7653 27.3553 33.5136 28.5399 32.9101L26.7239 29.346C26.1972 29.6144 25.5019 29.7988 24.2915 29.8976C23.0578 29.9984 21.4732 30 19.2 30V34ZM29.346 26.7239C28.7708 27.8529 27.8529 28.7708 26.7239 29.346L28.5399 32.9101C30.4215 31.9513 31.9513 30.4215 32.9101 28.5399L29.346 26.7239ZM19.2 2C21.4732 2 23.0578 2.00156 24.2915 2.10235C25.5019 2.20124 26.1972 2.38559 26.7239 2.65396L28.5399 -0.910065C27.3553 -1.51364 26.0749 -1.76527 24.6172 -1.88436C23.1829 -2.00156 21.4072 -2 19.2 -2V2ZM34 12.8C34 10.5928 34.0016 8.8171 33.8844 7.38275C33.7653 5.92505 33.5136 4.64468 32.9101 3.46009L29.346 5.27606C29.6144 5.80277 29.7988 6.49814 29.8976 7.70848C29.9984 8.94216 30 10.5268 30 12.8H34ZM26.7239 2.65396C27.8529 3.2292 28.7708 4.14708 29.346 5.27606L32.9101 3.46009C31.9513 1.57847 30.4215 0.0486684 28.5399 -0.910065L26.7239 2.65396ZM12.8 -2C10.5928 -2 8.8171 -2.00156 7.38275 -1.88436C5.92505 -1.76527 4.64468 -1.51364 3.46009 -0.910065L5.27606 2.65396C5.80277 2.38559 6.49814 2.20124 7.70848 2.10235C8.94216 2.00156 10.5268 2 12.8 2V-2ZM2 12.8C2 10.5268 2.00156 8.94216 2.10235 7.70848C2.20124 6.49814 2.38559 5.80277 2.65396 5.27606L-0.910065 3.46009C-1.51364 4.64468 -1.76527 5.92505 -1.88436 7.38275C-2.00156 8.8171 -2 10.5928 -2 12.8H2ZM3.46009 -0.910065C1.57847 0.0486684 0.0486684 1.57847 -0.910065 3.46009L2.65396 5.27606C3.2292 4.14708 4.14708 3.2292 5.27606 2.65396L3.46009 -0.910065Z" fill="#471515"/>
</svg>
